<svg id="图层_1" data-name="图层 1" xmlns="http://www.w3.org/2000/svg" viewBox="0 0 46.2 54.1"><defs><style>.cls-1{fill:#b8bccc;}.cls-2{fill:#2ba345;}</style></defs><title>画板 1</title><g id="圖層_2" data-name="圖層 2"><g id="圖層_1-2" data-name="圖層 1-2"><path class="cls-1" d="M23.1,54.1a4,4,0,0,1-2.9-1.2L6.9,39.6l-.3-.3A22.76,22.76,0,0,1,0,23.1,23.1,23.1,0,1,1,39.6,39.3l-.5.5-13,13A4,4,0,0,1,23.1,54.1Zm0-51A20.08,20.08,0,0,0,8.9,37.4L19.5,48.1c1.7,1.7,2.6,2.6,3.6,2.6s1.9-.9,3.6-2.6L37.3,37.4A20.08,20.08,0,0,0,23.1,3.1Z"/><path class="cls-2" d="M23.1,12.9A11.3,11.3,0,1,0,34.4,24.2,11.3,11.3,0,0,0,23.1,12.9Zm0,19.5a8.3,8.3,0,1,1,8.3-8.3,8.31,8.31,0,0,1-8.3,8.3Z"/></g></g></svg>