<svg xmlns="http://www.w3.org/2000/svg" viewBox="0 0 63.55 80"><defs><style>.cls-1{fill:#2ba345;}</style></defs><title>betting</title><g id="圖層_2" data-name="圖層 2"><g id="圖層_1-2" data-name="圖層 1"><path class="cls-1" d="M41.41,11.45h-31C4.67,11.45,0,16.4,0,22.44V69c0,6,4.67,11,10.38,11h31c5.71,0,10.38-4.94,10.38-11V22.44C51.79,16.4,47.12,11.45,41.41,11.45ZM39.32,40.33H12.47a3,3,0,0,1,0-5.9H39.32a3,3,0,0,1,0,5.9Zm-.09,10.85H12.38a3,3,0,0,1,0-5.9H39.23a3,3,0,0,1,0,5.9ZM29.16,61.72H12.38a3,3,0,0,1,0-5.9H29.16a3,3,0,0,1,0,5.9Z"/><path class="cls-1" d="M53.17,0h-31A10.57,10.57,0,0,0,12,8.61a9.74,9.74,0,0,1,1.67-.16h31c5.71,0,10.38,4.94,10.38,11V66a11.51,11.51,0,0,1-.25,2.38,10.85,10.85,0,0,0,8.7-10.83V11C63.55,4.94,58.88,0,53.17,0Z"/></g></g></svg>