<svg id="图层_1" data-name="图层 1" xmlns="http://www.w3.org/2000/svg" viewBox="0 0 60 60"><defs><style>.cls-1{fill:#fff;opacity:0.8;}</style></defs><title>画板 1</title><path class="cls-1" d="M39.29,59.73A16.73,16.73,0,1,1,56,43,16.72,16.72,0,0,1,39.29,59.73Zm0-26A9.29,9.29,0,1,0,48.57,43a9.29,9.29,0,0,0-9.28-9.29Zm1.85,14.86H37.43V44.86H33.71V41.15h3.72V37.43h3.71v3.72h3.72v3.71H41.14v3.72ZM48.57,20V24.9a18.69,18.69,0,0,0-1.68-.83A6.06,6.06,0,0,0,48.57,20Zm-6.28,2.86a19.93,19.93,0,0,0-3-.3,20.33,20.33,0,0,0-11.61,3.64c-.47,0-.92.07-1.39.07C14,26.28,4,21.29,4,15.13V11.42C4,5.26,14,.27,26.29.27s22.28,5,22.28,11.15v3.71c0,3-2.41,5.73-6.28,7.74Zm-18.56,7a20.23,20.23,0,0,0-3.84,7C10.72,35.53,4,31.32,4,26.28V20c0,5.72,8.64,9.39,19.73,9.89ZM19.09,40.64A20.45,20.45,0,0,0,18.86,43a20.65,20.65,0,0,0,.68,5C10.55,46.57,4,42.41,4,37.43V31.16c0,4.89,6.34,8.28,15.09,9.48ZM21,52a20.48,20.48,0,0,0,6.48,7.64c-.42,0-.81.06-1.23.06C14,59.73,4,54.74,4,48.58V42.31c0,5.25,7.27,8.78,17,9.72Z"/></svg>