<svg xmlns="http://www.w3.org/2000/svg" viewBox="0 0 49.8 53.4"><title>資產 19</title><g id="圖層_2" data-name="圖層 2"><g id="圖層_1-2" data-name="圖層 1"><path d="M24.9,53.4c-2.24,0-4.11-.85-4.77-2.17l-.06-.12-.13,0A21.09,21.09,0,0,1,5.55,39.18L5.48,39H5.1A5,5,0,0,1,0,33.9V26.7a5,5,0,0,1,5.1-5.1h.3V19.5a19.5,19.5,0,1,1,39,0v2.1h.3a5,5,0,0,1,5.1,5.1v7.2A5,5,0,0,1,44.7,39H41.1A5,5,0,0,1,36,33.9V26.7a5,5,0,0,1,5.1-5.1h.3V19.5a16.5,16.5,0,0,0-33,0v2.1h.3a5,5,0,0,1,5.1,5.1v7.2A5.17,5.17,0,0,1,9.2,39l-.45.06.23.39a18.2,18.2,0,0,0,11.53,8.6l.13,0,.11-.07A7.35,7.35,0,0,1,24.9,46.8c3,0,5.1,1.39,5.1,3.3S27.86,53.4,24.9,53.4ZM41.1,24.6A2,2,0,0,0,39,26.7v7.2A2,2,0,0,0,41.1,36h3.6a2,2,0,0,0,2.1-2.1V26.7a2,2,0,0,0-2.1-2.1Zm-36,0A2,2,0,0,0,3,26.7v7.2A2,2,0,0,0,5.1,36H8.7a2,2,0,0,0,2.1-2.1V26.7a2,2,0,0,0-2.1-2.1Z"/></g></g></svg>