<svg xmlns="http://www.w3.org/2000/svg" viewBox="0 0 53.5 53.5"><title>資產 8</title><g id="圖層_2" data-name="圖層 2"><g id="圖層_1-2" data-name="圖層 1"><path d="M6.1,43.4A6.06,6.06,0,0,1,0,37.3V6.1A6.06,6.06,0,0,1,6.1,0H37.3a6.06,6.06,0,0,1,6.1,6.1V37.3a6.06,6.06,0,0,1-6.1,6.1Zm0-40.5A3.07,3.07,0,0,0,3,6V37.2a3.07,3.07,0,0,0,3.1,3.1H37.3a3.07,3.07,0,0,0,3.1-3.1V6a3.07,3.07,0,0,0-3.1-3.1Z"/><path d="M17.9,53.5a7.81,7.81,0,0,1-7.8-7.8V42.3h3v3.4a4.8,4.8,0,0,0,4.8,4.8H45.7a4.8,4.8,0,0,0,4.8-4.8V17.9a4.8,4.8,0,0,0-4.8-4.8H42.6v-3h3.1a7.81,7.81,0,0,1,7.8,7.8V45.7a7.81,7.81,0,0,1-7.8,7.8ZM15.2,16.4a1.5,1.5,0,0,1,0-3H28.5a1.5,1.5,0,0,1,0,3Z"/><path d="M15.2,26.7a1.5,1.5,0,0,1,0-3H28.5a1.5,1.5,0,1,1,0,3Z"/></g></g></svg>