<svg id="图层_1" data-name="图层 1" xmlns="http://www.w3.org/2000/svg" viewBox="0 0 60 60"><defs><style>.cls-1{opacity:0.8;}.cls-2{fill:#fff;}</style></defs><title>画板 1</title><g class="cls-1"><path class="cls-2" d="M19.47,37c-.81-.37-3.37-1.48-3.37-1.48a1.79,1.79,0,0,1,0-1,4.48,4.48,0,0,0,1.3-2.46c.56-.25.72-1.29.77-1.48s-.05-.67-.42-.7a3.16,3.16,0,0,0,.17-1,2,2,0,0,0,0-.25,2,2,0,0,0,0-.25c0-1.9-1.69-2.95-3.76-2.95s-3.76,1.05-3.76,2.95c0,.09,0,.17,0,.25s0,.17,0,.25a3.16,3.16,0,0,0,.17,1c-.38,0-.48.53-.43.7s.22,1.23.78,1.48a4.42,4.42,0,0,0,1.3,2.46,2.42,2.42,0,0,1,0,1S9.66,36.61,8.85,37c-2.38,1.1-3.11,1-3.11,3,0,.6,0,.35,0,.35H22.58c0-.05,0-.13,0-.35C22.58,38,21.84,38.08,19.47,37Z"/><path class="cls-2" d="M56.26,5.87A2.84,2.84,0,0,0,53.45,3H2.94A2.84,2.84,0,0,0,.13,5.87v6.46H56.25Z"/><path class="cls-2" d="M47.83,29.16a15.79,15.79,0,0,1,8.42,2.43V19.81H.13V43.15A2.84,2.84,0,0,0,2.94,46H32c0-.32-.05-.63-.05-1A15.9,15.9,0,0,1,47.83,29.16ZM22.58,40.34H5.75s0,.25,0-.35c0-2,.73-1.91,3.11-3,.81-.37,3.37-1.48,3.37-1.48a2.42,2.42,0,0,0,0-1,4.42,4.42,0,0,1-1.3-2.46c-.56-.25-.73-1.29-.78-1.48s0-.67.43-.7a3.16,3.16,0,0,1-.17-1c0-.08,0-.17,0-.25s0-.16,0-.25c0-1.9,1.68-2.95,3.76-2.95s3.76,1.05,3.76,2.95a2,2,0,0,1,0,.25,2,2,0,0,1,0,.25,3.16,3.16,0,0,1-.17,1c.37,0,.47.53.42.7s-.21,1.23-.77,1.48a4.48,4.48,0,0,1-1.3,2.46,1.79,1.79,0,0,0,0,1s2.56,1.11,3.37,1.48c2.37,1.1,3.11,1,3.1,3,0,.22,0,.3,0,.35v0Z"/></g><g class="cls-1"><path class="cls-2" d="M47.83,32.89A12.18,12.18,0,1,0,60,45.07,12.17,12.17,0,0,0,47.83,32.89Zm2.94,17a4.15,4.15,0,0,1-2.9,1A4.08,4.08,0,0,1,45.13,50a4,4,0,0,1-1.29-2.88h1.83a2.27,2.27,0,0,0,.67,1.67,2.13,2.13,0,0,0,1.52.55,2.26,2.26,0,0,0,1.64-.59A1.83,1.83,0,0,0,50,47.39a1.71,1.71,0,0,0-.56-1.4,2.4,2.4,0,0,0-1.61-.46h-.77V44.16h.77a2.26,2.26,0,0,0,1.47-.42,1.58,1.58,0,0,0,.49-1.25,1.64,1.64,0,0,0-.45-1.23,2.58,2.58,0,0,0-2.91.06,2.23,2.23,0,0,0-.64,1.5H44.06a3.66,3.66,0,0,1,1.22-2.62,3.77,3.77,0,0,1,2.65-.92,4.1,4.1,0,0,1,2.68.81,2.76,2.76,0,0,1,1,2.26,2.4,2.4,0,0,1-1.82,2.44,3,3,0,0,1,1.48.9,2.38,2.38,0,0,1,.56,1.62A3.31,3.31,0,0,1,50.77,49.84Z"/></g></svg>