<svg id="图层_1" data-name="图层 1" xmlns="http://www.w3.org/2000/svg" viewBox="0 0 60 60"><defs><style>.cls-1{opacity:0.8;}.cls-2{fill:#fff;}</style></defs><title>画板 1</title><g class="cls-1"><path class="cls-2" d="M19.51,37.13c-.81-.37-3.36-1.47-3.36-1.47a1.83,1.83,0,0,1,0-1,4.4,4.4,0,0,0,1.29-2.45c.56-.25.73-1.29.78-1.48s0-.67-.43-.7A3.16,3.16,0,0,0,18,29c0-.09,0-.17,0-.25s0-.16,0-.25c0-1.9-1.68-2.95-3.75-2.95s-3.76,1.05-3.76,2.95c0,.09,0,.17,0,.25s0,.17,0,.25a3.16,3.16,0,0,0,.17,1c-.38,0-.47.53-.43.7s.22,1.23.78,1.48a4.36,4.36,0,0,0,1.3,2.45,2.28,2.28,0,0,1,0,1s-2.56,1.1-3.37,1.47c-2.37,1.1-3.1,1-3.1,3,0,.6,0,.36,0,.36H22.62c0-.05,0-.14,0-.36C22.62,38.13,21.88,38.23,19.51,37.13Z"/><path class="cls-2" d="M56.26,6.05a2.83,2.83,0,0,0-2.8-2.86H3A2.83,2.83,0,0,0,.2,6.05v6.46H56.25Z"/><path class="cls-2" d="M47.84,29.32a15.79,15.79,0,0,1,8.42,2.43V20H.2V43.3A2.83,2.83,0,0,0,3,46.16H32c0-.32,0-.63,0-.95A15.88,15.88,0,0,1,47.84,29.32ZM22.62,40.49H5.8s0,.24,0-.36c0-2,.73-1.9,3.1-3,.81-.37,3.37-1.47,3.37-1.47a2.28,2.28,0,0,0,0-1A4.36,4.36,0,0,1,11,32.22c-.56-.25-.73-1.29-.78-1.48s.05-.67.43-.7a3.16,3.16,0,0,1-.17-1c0-.08,0-.17,0-.25s0-.16,0-.25c0-1.9,1.68-2.95,3.76-2.95S18,26.62,18,28.52c0,.09,0,.17,0,.25s0,.16,0,.25a3.16,3.16,0,0,1-.17,1c.38,0,.47.53.43.7S18,32,17.44,32.22a4.4,4.4,0,0,1-1.29,2.45,1.83,1.83,0,0,0,0,1s2.55,1.1,3.36,1.47c2.37,1.1,3.11,1,3.1,3,0,.22,0,.31,0,.36v0Z"/></g><g class="cls-1"><polygon class="cls-2" points="44.44 47.19 48.9 47.19 48.9 41.48 48.85 41.48 44.44 47.19"/><path class="cls-2" d="M47.85,33A12.17,12.17,0,1,0,60,45.21,12.17,12.17,0,0,0,47.85,33Zm4.92,15.81H50.88v2.73h-2V48.85H42.75v-2l6.22-8h1.91v8.35h1.89Z"/><path class="cls-2" d="M48.9,47.19H44.44l4.41-5.71h0Z"/></g></svg>