<svg id="图层_1" data-name="图层 1" xmlns="http://www.w3.org/2000/svg" viewBox="0 0 60 60"><defs><style>.cls-1{opacity:0.8;}.cls-2{fill:#fff;}</style></defs><title>画板 1</title><g class="cls-1"><path class="cls-2" d="M19.32,36.89c-.81-.37-3.36-1.47-3.36-1.47a1.76,1.76,0,0,1,0-1A4.38,4.38,0,0,0,17.25,32c.56-.24.73-1.28.78-1.46s-.05-.67-.43-.7a3.1,3.1,0,0,0,.17-1c0-.08,0-.16,0-.25s0-.16,0-.24c0-1.89-1.68-2.93-3.75-2.93s-3.76,1-3.76,2.93c0,.08,0,.16,0,.24s0,.17,0,.25a3.1,3.1,0,0,0,.17,1c-.38,0-.47.53-.43.7s.22,1.22.78,1.46a4.39,4.39,0,0,0,1.3,2.45,2.37,2.37,0,0,1,0,1s-2.56,1.1-3.37,1.47c-2.37,1.09-3.11,1-3.1,3,0,.6,0,.35,0,.35H22.43v-.35C22.43,37.88,21.7,38,19.32,36.89Z"/><path class="cls-2" d="M56.09,6a2.82,2.82,0,0,0-2.8-2.84H2.8A2.82,2.82,0,0,0,0,6v6.42H56.08Z"/><path class="cls-2" d="M47.67,29.13a15.92,15.92,0,0,1,8.42,2.41V19.85H0V43a2.82,2.82,0,0,0,2.8,2.84h29c0-.32,0-.63,0-1A15.84,15.84,0,0,1,47.67,29.13ZM22.43,40.22H5.61s0,.25,0-.35c0-2,.73-1.89,3.1-3,.81-.37,3.37-1.47,3.37-1.47a2.37,2.37,0,0,0,0-1A4.39,4.39,0,0,1,10.78,32c-.56-.24-.73-1.28-.78-1.46s.05-.67.43-.7a3.1,3.1,0,0,1-.17-1c0-.08,0-.16,0-.25s0-.16,0-.24c0-1.89,1.68-2.93,3.76-2.93s3.75,1,3.75,2.93c0,.08,0,.16,0,.24s0,.17,0,.25a3.1,3.1,0,0,1-.17,1c.38,0,.48.53.43.7s-.22,1.22-.78,1.46A4.38,4.38,0,0,1,16,34.45a1.76,1.76,0,0,0,0,1s2.55,1.1,3.36,1.47c2.38,1.09,3.11,1,3.11,3Z"/><path class="cls-2" d="M47.67,32.83A12.09,12.09,0,1,0,59.83,44.91,12.12,12.12,0,0,0,47.67,32.83Zm4,18h-8a4.36,4.36,0,0,1,1.14-3,15.65,15.65,0,0,1,2.63-2.09A10,10,0,0,0,49,44.41a2.65,2.65,0,0,0,.76-1.79,1.82,1.82,0,0,0-.5-1.39,2.18,2.18,0,0,0-1.49-.45,1.84,1.84,0,0,0-1.59.72,3.47,3.47,0,0,0-.58,2H43.77a4.32,4.32,0,0,1,1.12-3.07,3.83,3.83,0,0,1,3-1.24,4,4,0,0,1,2.75.95,3.18,3.18,0,0,1,1.06,2.47,3.91,3.91,0,0,1-1.13,2.69,14.77,14.77,0,0,1-2.37,1.84,5.78,5.78,0,0,0-2.14,2h5.65Z"/></g></svg>