<svg xmlns="http://www.w3.org/2000/svg" viewBox="0 0 73.38 80"><defs><style>.cls-1{fill:#2ba345;}</style></defs><title>funds</title><g id="圖層_2" data-name="圖層 2"><g id="圖層_1-2" data-name="圖層 1"><path class="cls-1" d="M48.92,0H12.23A12.24,12.24,0,0,0,0,12.23V67.77A12.24,12.24,0,0,0,12.23,80H42.15A22.42,22.42,0,0,1,55,39.24a21.62,21.62,0,0,1,6.11.86V12.23A12.24,12.24,0,0,0,48.92,0ZM26.84,34.65H10.53a3.06,3.06,0,1,1,0-6.11H26.84a3.06,3.06,0,1,1,0,6.11ZM51.3,21.4H10.53a3.06,3.06,0,0,1,0-6.11H51.3a3.06,3.06,0,1,1,0,6.11Z"/><path class="cls-1" d="M61.15,44.37A17.94,17.94,0,0,0,55,43.31a18.38,18.38,0,1,0,6.11,1.06ZM61,61.29a1.61,1.61,0,1,1,0,3.22H56.64v7a1.61,1.61,0,1,1-3.22,0v-7H49.09a1.61,1.61,0,1,1,0-3.22h4.33V59H49.09a1.61,1.61,0,1,1,0-3.22h2.47l-2.08-2.08a1.61,1.61,0,0,1,2.28-2.28l3.29,3.29,3.29-3.29a1.61,1.61,0,0,1,2.28,2.28l-2.08,2.08H61A1.61,1.61,0,0,1,61,59H56.64v2.25Z"/></g></g></svg>