<svg id="图层_1" data-name="图层 1" xmlns="http://www.w3.org/2000/svg" viewBox="0 0 44.9 54"><defs><style>.cls-1{fill:#b8bccc;}.cls-2{fill:#2ba345;}</style></defs><title>画板 1</title><g id="圖層_2" data-name="圖層 2"><g id="圖層_1-2" data-name="圖層 1-2"><path class="cls-1" d="M22.4,54A22.44,22.44,0,0,1,0,31.6v-2a9.36,9.36,0,0,1,9.3-9.3H36.9a8,8,0,0,1,8,8v3.3A22.58,22.58,0,0,1,22.4,54ZM9.2,23.2a6.38,6.38,0,0,0-6.4,6.36v2a19.5,19.5,0,0,0,39,0h0V28.4a5.16,5.16,0,0,0-5.12-5.2H9.6v-.1H9.2Z"/><path class="cls-1" d="M33.5,21.7a1.51,1.51,0,0,1-1.4-1.4V12.5a9.6,9.6,0,0,0-19.2,0v7.8a1.51,1.51,0,0,1-1.4,1.4,1.51,1.51,0,0,1-1.4-1.4V12.5a12.5,12.5,0,0,1,25,0v7.8A1.9,1.9,0,0,1,33.5,21.7Z"/><path class="cls-2" d="M22.4,40.8A1.51,1.51,0,0,1,21,39.4V31.1a1.4,1.4,0,0,1,2.8,0h0v8.3a1.31,1.31,0,0,1-1.21,1.4Z"/></g></g></svg>