<svg id="tc_1" data-name="tc 1" xmlns="http://www.w3.org/2000/svg" xmlns:xlink="http://www.w3.org/1999/xlink" viewBox="0 0 807.67 200"><defs>
<style>
.cls-1{fill:url(#wmmtc_10);}
.cls-2{fill:none;}.cls-3{clip-path:url(#clip-path);}
.cls-4{fill:url(#wmmtc_10-3);}
.cls-5{clip-path:url(#clip-path-2);}
.cls-6{fill:url(#wmmtc_10-4);}.cls-7{clip-path:url(#clip-path-3);}
.cls-8{fill:url(#wmmtc_10-5);}.cls-9{clip-path:url(#clip-path-4);}
.cls-10{fill:url(#wmmtc_10-6);}.cls-11{fill:url(#wmmtc_10-7);}
.cls-12{fill:url(#wmmtc_10-8);}.cls-13{fill:url(#wmmtc_10-9);}
.cls-14{fill:url(#wmmtc_10-10);}.cls-15{fill:url(#wmmtc_10-11);}
.cls-16{fill:url(#wmmtc_10-12);}.cls-17{fill:url(#wmmtc_10-13);}
.cls-18{fill:url(#wmmtc_10-14);}.cls-19{fill:url(#wmmtc_10-15);}
.cls-20{fill:url(#wmmtc_10-16);}.cls-21{fill:url(#wmmtc_10-17);}
.cls-22{fill:url(#wmmtc_10-18);}</style>
<linearGradient id="wmmtc_10" x1="2.44" y1="52.18" x2="87.68" y2="52.18" gradientUnits="userSpaceOnUse">
<stop offset="0" stop-color="#00af00"/><stop offset="0.25" stop-color="#00be00"/><stop offset="0.72" stop-color="#00e500"/>
<stop offset="1" stop-color="lime"/></linearGradient><clipPath id="clip-path"><path class="cls-1" d="M2.44,1.26l63,97.45a10.49,10.49,0,0,0,18.18-2l4.09-9.55Z"/></clipPath>
<linearGradient id="wmmtc_10-3" x1="239.5" y1="116.15" x2="237.74" y2="118.09" gradientTransform="matrix(32.51, 0, 0, -32.51, -7710.33, 3864.72)" xlink:href="#wmmtc_10"/>
<clipPath id="clip-path-2">
<path class="cls-2" d="M6.44,1.26l82.43,83.1L106.19,43.9a28,28,0,0,0-1-24.47A34.88,34.88,0,0,0,75,1.26Z"/></clipPath>
<linearGradient id="wmmtc_10-4" x1="241.1" y1="112.85" x2="243.72" y2="112.85" gradientTransform="matrix(0, 43.13, 43.13, 0, -4808.98, -10416.74)" xlink:href="#wmmtc_10"/>
<clipPath id="clip-path-3"><path class="cls-2" d="M183.43,1.26c-1.35.05-21.45,1.15-34.08,21.21-11.83,17.62-50.83,76-63.24,94.6A10.46,10.46,0,0,0,86,128.59L110.29,166,258.4,1.26Z"/>
</clipPath><linearGradient id="wmmtc_10-5" x1="241.78" y1="116.83" x2="244.4" y2="116.83" gradientTransform="matrix(66.39, 0, 0, -66.39, -15968.44, 7840.69)" xlink:href="#wmmtc_10"/>
<clipPath id="clip-path-4"><polygon class="cls-2" points="111.91 168.48 131.91 199.96 262.7 1.28 111.91 168.48"/></clipPath>
<linearGradient id="wmmtc_10-6" x1="243.65" y1="117.43" x2="241.92" y2="115.46" gradientTransform="matrix(57.52, 0, 0, -57.52, -13786.15, 6808.63)" xlink:href="#wmmtc_10"/>
<linearGradient id="wmmtc_10-7" x1="312.91" y1="85.43" x2="382.9" y2="85.43" xlink:href="#wmmtc_10"/>
<linearGradient id="wmmtc_10-8" x1="459.09" y1="54.71" x2="619.91" y2="54.71" xlink:href="#wmmtc_10"/>
<linearGradient id="wmmtc_10-9" x1="448.16" y1="80.57" x2="622.92" y2="80.57" xlink:href="#wmmtc_10"/>
<linearGradient id="wmmtc_10-10" x1="567.91" y1="134.14" x2="572.59" y2="134.14" xlink:href="#wmmtc_10"/>
<linearGradient id="wmmtc_10-11" x1="561.91" y1="134.14" x2="566.89" y2="134.14" xlink:href="#wmmtc_10"/>
<linearGradient id="wmmtc_10-12" x1="556.03" y1="134.14" x2="560.89" y2="134.14" xlink:href="#wmmtc_10"/>
<linearGradient id="wmmtc_10-13" x1="550.16" y1="134.14" x2="555.02" y2="134.14" xlink:href="#wmmtc_10"/>
<linearGradient id="wmmtc_10-14" x1="449.83" y1="119.76" x2="611.3" y2="119.76" xlink:href="#wmmtc_10"/>
<linearGradient id="wmmtc_10-15" x1="544.31" y1="134.14" x2="549.14" y2="134.14" xlink:href="#wmmtc_10"/>
<linearGradient id="wmmtc_10-16" x1="266.2" y1="109.17" x2="507.89" y2="109.17" xlink:href="#wmmtc_10"/>
<linearGradient id="wmmtc_10-17" x1="682.34" y1="109.15" x2="802.44" y2="109.15" xlink:href="#wmmtc_10"/>
<linearGradient id="wmmtc_10-18" x1="539.48" y1="109.34" x2="688.11" y2="109.34" xlink:href="#wmmtc_10"/>
</defs><path class="cls-1" d="M2.44,1.26l63,97.45a10.49,10.49,0,0,0,18.18-2l4.09-9.55Z"/>
<g class="cls-3"><rect class="cls-4" x="2.44" y="1.26" width="85.24" height="104.12"/></g><g class="cls-5">
<rect class="cls-6" x="-7.38" y="-18.86" width="130.78" height="123.34" transform="translate(-13.6 34.44) rotate(-29.76)"/></g>
<g class="cls-7"><rect class="cls-8" x="83.76" y="1.26" width="174.65" height="164.69"/></g><g class="cls-9">
<rect class="cls-10" x="111.91" y="1.28" width="150.79" height="198.69"/></g>
<polygon class="cls-11" points="380.9 92.33 382.9 78.53 314.91 78.53 312.91 92.33 380.9 92.33"/>
<polygon class="cls-12" points="619.91 50.99 556.72 50.99 557.56 45.16 525.05 45.16 524.21 50.99 461.01 50.99 459.09 64.26 617.98 64.26 619.91 50.99"/>
<polygon class="cls-13" points="620.99 92.15 622.92 78.88 595.3 78.88 598.53 69 566.31 69 563.08 78.88 509.74 78.88 512.35 69 480.1 69 477.49 78.88 450.08 78.88 448.16 92.15 620.99 92.15"/>
<polygon class="cls-14" points="570.94 140.16 572.6 128.13 569.77 128.13 567.9 140.16 570.94 140.16"/>
<polygon class="cls-15" points="565.02 140.16 566.89 128.13 563.78 128.13 561.91 140.16 565.02 140.16"/>
<polygon class="cls-16" points="559.03 140.16 560.89 128.13 557.9 128.13 556.03 140.16 559.03 140.16"/>
<polygon class="cls-17" points="553.15 140.16 555.02 128.13 552.03 128.13 550.16 140.16 553.15 140.16"/>
<polygon class="cls-18" points="605.37 140.16 611.3 99.36 455.76 99.36 449.83 140.16 541.43 140.16 543.29 128.13 484.09 128.13 486.52 111.39 577.04 111.39 572.87 140.16 605.37 140.16"/>
<polygon class="cls-19" points="547.28 140.16 549.14 128.13 546.17 128.13 544.31 140.16 547.28 140.16"/>
<path class="cls-20" d="M456.18,161.14H425.06L421,125.93l19.34-11.43,2.75-18.93L419,109.7l-4.46-38.91h17.82A16,16,0,0,0,448.2,57.11l1.79-12H431.44l-1.8,12.08H412.79l0-.3a13.56,13.56,0,0,0-13.48-12.06H384.11l1.39,12.36H283.07l-15.18,104.5h0l-1.69,11.68h13.08a18.37,18.37,0,0,0,18.18-15.73l5.38-37.05h8.28l0,1.22a40.16,40.16,0,0,0,9.25,27.27l1.14,1.37-1.84.85a103.06,103.06,0,0,1-13.93,5.25L303.31,173A158.2,158.2,0,0,0,336,162.55l.65-.31.57.3A121.66,121.66,0,0,0,367.07,173l2.39-16.49a84.77,84.77,0,0,1-12.57-5.24l-1.65-.86,1.59-1.39A54.52,54.52,0,0,0,374,121.79l.34-1.22h9.89l2-13.8h-9.54L377.81,99H354.13L353,106.77H336.61L337.74,99H314.06l-1.13,7.77h-8.09l5.23-36h77.14l6.11,53.92-9.87,5.78-2.77,19.09,14.66-8.65,3.78,32.59h79.57l1-.92,0,0,28.18-26.24H472.84Zm-121.78-39,.07-1.53H351l-.37,1.53a30.71,30.71,0,0,1-9.26,15.1l-1.19,1.14-.87-1.14A22.4,22.4,0,0,1,334.4,122.1Z"/>
<path class="cls-21" d="M800.46,73.08l2-13.62H762.72l2-13.94H749.47a14.39,14.39,0,0,0-14.25,12.33L735,59.46H695.27l-2,13.62H733l-3,20.63H694.53l-1.9,13.09h69.73l-1.34,2c-4.87,7.42-12.32,15-21.53,22l-1,.72-.79-.67a59.71,59.71,0,0,1-14.08-16.67H696.51c3.88,10,10.63,19.53,20.09,28.23l1.49,1.38-2.1,1a145.86,145.86,0,0,1-31,10.12l-2.6,17.91a172.2,172.2,0,0,0,52.7-16l.71-.35.6.35c13.91,8,30.31,13.36,48.75,16l2.61-17.92a126,126,0,0,1-29.12-10.28l-1.85-.92,1.87-1.41C775,129.88,787,115.57,793.7,100.48a4.83,4.83,0,0,0-4.44-6.77H757.75l3-20.63Z"/>
<path class="cls-22" d="M668,101.29,672,74h14.12l2-13.62H674l2.16-14.83H660a15.19,15.19,0,0,0-15,13l-.27,1.81H629.12l-2,13.62h15.54l-4.93,33.93-16,3.53-2.27,15.67,16.05-3.53L630.05,161H573.76l2.12-14.65h-32.5l-3.9,26.86H645.81a17.59,17.59,0,0,0,13.93-14.69l6-41.5,14.61-3.36,2.25-15.5Z"/></svg>