<svg id="图层_1" data-name="图层 1" xmlns="http://www.w3.org/2000/svg" viewBox="0 0 53.29 46.4"><defs><style>.cls-1{fill:#b8bccc;}.cls-2{fill:#2ba345;}</style></defs><title>画板 1</title><g id="圖層_2" data-name="圖層 2"><g id="圖層_1-2" data-name="圖層 1-2"><path class="cls-1" d="M26.65,46.4a2.16,2.16,0,0,1-1.1-.4L.45,20.7a1.51,1.51,0,0,1-.2-1.9L12.65.7a1.53,1.53,0,0,1,1.2-.7h25.6a1.21,1.21,0,0,1,1.2.7L53,18.8a1.51,1.51,0,0,1-.2,1.9L27.65,45.9A1.23,1.23,0,0,1,26.65,46.4Zm-23.2-27,23.2,23.4,23.2-23.4L38.65,2.9h-24Z"/><path class="cls-2" d="M26.65,28.9a1.69,1.69,0,0,1-1.3-.7l-8.5-13.7a1.61,1.61,0,0,1,.5-2.1,1.86,1.86,0,0,1,.8-.2,1.69,1.69,0,0,1,1.3.7l7.2,11.7,7.2-11.7a1.69,1.69,0,0,1,1.3-.7,2.41,2.41,0,0,1,.8.2,1.54,1.54,0,0,1,.7.9,1.38,1.38,0,0,1-.2,1.1L28,28.1A1.56,1.56,0,0,1,26.65,28.9Z"/></g></g></svg>