<svg id="图层_1" data-name="图层 1" xmlns="http://www.w3.org/2000/svg" viewBox="0 0 47.5 52"><defs><style>.cls-1{fill:#b8bccc;}.cls-2{fill:#2ba345;}</style></defs><title>画板 1</title><g id="圖層_2" data-name="圖層 2"><g id="圖層_1-2" data-name="圖層 1-2"><path class="cls-1" d="M5.2,52A5.16,5.16,0,0,1,0,46.88V5.2A5.16,5.16,0,0,1,5.12,0H42.3a5.16,5.16,0,0,1,5.2,5.12V46.8A5.16,5.16,0,0,1,42.38,52H5.2Zm0-49.1A2.22,2.22,0,0,0,3,5.1V46.7a2.22,2.22,0,0,0,2.2,2.2H42.3a2.22,2.22,0,0,0,2.2-2.2V5.2A2.22,2.22,0,0,0,42.3,3H5.2ZM24,44.5a25.68,25.68,0,0,1-8.3-1.2c-4-1.3-4.6-3.5-4.6-4.7a11.92,11.92,0,0,1,6.7-10.5l.9-.4-.6-.7a8,8,0,0,1,.6-11.3h0A8.25,8.25,0,0,1,24,13.6a8,8,0,0,1,5.9,13.3l-.6.7.9.4A11.79,11.79,0,0,1,37,38.5c0,1.2-.6,3.3-4.6,4.7A23.52,23.52,0,0,1,24,44.5Zm-.1-14.8c-5.4.1-9.7,4.1-9.7,9v.2l.1.1c.5,1.2,4.4,2.6,9.8,2.6s9.3-1.3,9.8-2.6l.1-.1v-.2c0-4.9-4.4-9-9.8-9Zm.1-13a5,5,0,1,0,5,5A5,5,0,0,0,24,16.7Z"/><path class="cls-2" d="M17.1,10.2a1.5,1.5,0,0,1,0-3H30.6a1.5,1.5,0,1,1,0,3Z"/></g></g></svg>