<?xml version="1.0" standalone="no"?>
<!DOCTYPE svg PUBLIC "-//W3C//DTD SVG 1.1//EN" "http://www.w3.org/Graphics/SVG/1.1/DTD/svg11.dtd">
<svg t="1572270409433" viewBox="0 0 1024 1024" version="1.1" xmlns="http://www.w3.org/2000/svg" xmlns:xlink="http://www.w3.org/1999/xlink" width="200" height="200"><defs>
<style type="text/css"></style></defs>
<path d="M147.319759 871.389576A510.36143 510.36143 0 0 1 0.000341 511.999829C0.000341 229.23939 229.239732 0 512.000171 0c282.760439 0 511.999829 229.23939 511.999829 511.999829 0 140.04902-56.217581 266.922578-147.319418 359.389747A510.429697 510.429697 0 0 1 512.000171 1023.999659a510.429697 510.429697 0 0 1-364.680412-152.610083z m30.071457-67.92531a384.853205 384.853205 0 0 1 232.994055-181.86234 204.799932 204.799932 0 1 1 203.229799 0c99.703433 27.306658 183.227672 93.764235 232.994056 181.86234A442.026519 442.026519 0 0 0 955.733356 511.999829c0-245.077252-198.655934-443.733185-443.733185-443.733185S68.266985 266.922578 68.266985 511.999829a442.026519 442.026519 0 0 0 109.124231 291.464437z"></path></svg>