<svg xmlns="http://www.w3.org/2000/svg" viewBox="0 0 54 43.17"><title>資產 17</title><g id="圖層_2" data-name="圖層 2"><g id="圖層_1-2" data-name="圖層 1"><path d="M50.35.75C49.6.75,43.32,0,38.1,0c-4.63,0-7.77.9-8.81,1.49a22.62,22.62,0,0,0-2.09,1.34,15.78,15.78,0,0,0-1.94-1.34C24.05.9,21.06,0,16.43,0,11.06,0,4.78.75,4,.75A4.25,4.25,0,0,0,0,4.93V38.24a4.25,4.25,0,0,0,4,4.18h.15c.6-.15,3.73-.45,7.17-.75,6.13-.45,8.52,0,9.41.15a9.19,9.19,0,0,1,1.64.45,14.06,14.06,0,0,0,4.48.9,14,14,0,0,0,4.18-.9,14.25,14.25,0,0,1,2.54-.6.55.55,0,0,0,.45-.15c7-1,15.39.6,15.39.6h.3a4.18,4.18,0,0,0,4.18-4.18v-33A3.61,3.61,0,0,0,50.35.75Zm-44.67,13a37.88,37.88,0,0,1,10.16-1.2,14.55,14.55,0,0,1,7.47,1.79,1.51,1.51,0,0,1,.6,1.94,1.57,1.57,0,0,1-1.34.75,1.35,1.35,0,0,1-.75-.15,11,11,0,0,0-6.13-1.34,32,32,0,0,0-9.41,1.2,1.54,1.54,0,0,1-1.79-1C4.48,14.64,4.93,13.89,5.68,13.74ZM24.2,28.09a1.44,1.44,0,0,1-1.34.9.9.9,0,0,1-.6-.15A19.07,19.07,0,0,0,16,27.34a29,29,0,0,0-8.37.9c-.3.15-.6.15-.9.3A1.47,1.47,0,1,1,6,25.7c.3-.15.6-.15.9-.3a32,32,0,0,1,9.11-1,20.85,20.85,0,0,1,7.62,1.79,1.63,1.63,0,0,1,.6,1.94Zm25.4-13a1.55,1.55,0,0,1-1.79,1.2,38.24,38.24,0,0,0-9.86-1,14.79,14.79,0,0,0-5.68,1.2,1.12,1.12,0,0,1-.75.15,1.78,1.78,0,0,1-1.34-.75,1.32,1.32,0,0,1,.6-1.94,16.78,16.78,0,0,1,7-1.64c3.73-.3,6.57.3,10.61,1a1.51,1.51,0,0,1,1.2,1.79Z"/></g></g></svg>