<svg xmlns="http://www.w3.org/2000/svg" viewBox="0 0 52.2 52.1"><title>資產 9</title><g id="圖層_2" data-name="圖層 2"><g id="圖層_1-2" data-name="圖層 1"><path d="M26,52.1a25.95,25.95,0,0,1-16-5.5,24.67,24.67,0,0,1-5-5.2L3.3,39v7.3a1.54,1.54,0,0,1-1.5,1.5H1.6A1.54,1.54,0,0,1,.1,46.3V35.6a1.54,1.54,0,0,1,1.5-1.5H12.3a1.54,1.54,0,0,1,1.5,1.5v.2a1.54,1.54,0,0,1-1.5,1.5H5.9l1,1.5a21.45,21.45,0,0,0,5,5.4,23.14,23.14,0,0,0,32.4-3.9,23.2,23.2,0,0,0,4.9-13.8v-.3a1.61,1.61,0,0,1,.3-.9,1.43,1.43,0,0,1,1.2-.6,1.4,1.4,0,0,1,.9.3,1.38,1.38,0,0,1,.6,1.1v.2a23.72,23.72,0,0,1-.9,6.5A25.7,25.7,0,0,1,46.7,42a25.44,25.44,0,0,1-7.9,6.7,25.93,25.93,0,0,1-9.5,3.1A20.2,20.2,0,0,1,26,52.1ZM1.5,27.3A1.4,1.4,0,0,1,.6,27,1.38,1.38,0,0,1,0,25.9v-.2a23.72,23.72,0,0,1,.9-6.5A25.7,25.7,0,0,1,5.5,10a25.44,25.44,0,0,1,7.9-6.7A25.93,25.93,0,0,1,22.9.2C23.9.1,25,0,26.1,0a26,26,0,0,1,16,5.5,24.67,24.67,0,0,1,5,5.2l1.7,2.4V5.8a1.54,1.54,0,0,1,1.5-1.5h.2a2.1,2.1,0,0,1,1.1.4A1.5,1.5,0,0,1,52,5.8V16.5A1.54,1.54,0,0,1,50.5,18H39.8a1.54,1.54,0,0,1-1.5-1.5v-.2a1.54,1.54,0,0,1,1.5-1.5h6.4l-1-1.5a21.45,21.45,0,0,0-5-5.4A23.14,23.14,0,0,0,7.8,11.8,23.2,23.2,0,0,0,2.9,25.6v.2a1.61,1.61,0,0,1-.3.9A1.15,1.15,0,0,1,1.5,27.3Z"/></g></g></svg>