<?xml version="1.0" standalone="no"?><!DOCTYPE svg PUBLIC "-//W3C//DTD SVG 1.1//EN" "http://www.w3.org/Graphics/SVG/1.1/DTD/svg11.dtd">
<svg t="1572530224866" class="icon" viewBox="0 0 1024 1024" version="1.1" xmlns="http://www.w3.org/2000/svg" p-id="2672" xmlns:xlink="http://www.w3.org/1999/xlink" width="200" height="200"><defs><style type="text/css"></style></defs><path d="M685.397333 347.477333c-15.018667-28.672-44.373333-46.421333-76.458666-46.421333H415.061333c-32.085333 0-61.44 17.749333-76.458666 46.421333l-36.864 70.314667c-17.066667 33.450667-11.605333 73.728 15.018666 100.352l96.256 98.986667c53.930667 55.296 143.36 55.296 197.973334 0l96.256-98.986667c25.941333-26.624 32.085333-67.584 15.018666-100.352l-36.864-70.314667z"></path><path d="M512 845.141333c-5.461333 0-11.605333-2.048-15.701333-6.826666L178.176 514.048c-21.162667-21.162667-25.941333-53.930667-11.605333-79.872l99.669333-191.146667c11.605333-22.528 35.498667-36.864 61.44-36.864h184.32c12.288 0 22.528 10.24 22.528 22.528s-10.24 22.528-22.528 22.528H327.68c-8.874667 0-17.749333 4.778667-21.845333 12.970667L206.165333 453.973333c-4.778667 9.557333-3.413333 21.162667 4.096 28.672l317.44 324.949334c8.874667 8.874667 8.192 23.210667-0.682666 31.402666-4.096 4.096-9.557333 6.144-15.018667 6.144z"></path><path d="M512 845.141333c-8.874667 0-17.749333-5.461333-21.162667-15.018666L369.322667 481.28c-1.365333-4.778667-1.365333-9.557333 0-14.336l80.554666-245.76c4.096-11.605333 16.384-17.749333 27.989334-14.336 11.605333 4.096 17.749333 16.384 14.336 27.989333l-78.506667 238.933334 119.466667 342.016c4.096 11.605333-2.048 24.576-13.653334 27.989333-2.730667 1.365333-4.778667 1.365333-7.509333 1.365333z"></path><path d="M512 496.298667H201.386667c-12.288 0-22.528-10.24-22.528-22.528s10.24-22.528 22.528-22.528H512c12.288 0 22.528 10.24 22.528 22.528s-10.24 22.528-22.528 22.528z"></path><path d="M512 845.141333c-5.461333 0-10.922667-2.048-15.701333-6.144-8.874667-8.874667-8.874667-22.528-0.682667-31.402666l317.44-324.949334c7.509333-7.509333 8.874667-19.114667 4.096-28.672l-99.669333-190.464c-4.096-8.192-12.288-12.970667-21.845334-12.970666H512c-12.288 0-22.528-10.24-22.528-22.528s10.24-22.528 22.528-22.528h184.32c25.941333 0 49.152 14.336 61.44 36.864l99.669333 190.464c13.653333 26.624 8.874667 58.709333-11.605333 79.872l-317.44 324.949333c-4.778667 5.461333-10.922667 7.509333-16.384 7.509333z"></path><path d="M512 845.141333c-2.730667 0-4.778667-0.682667-7.509333-1.365333-11.605333-4.096-17.749333-16.384-13.653334-27.989333l119.466667-342.016-78.506667-238.933334c-4.096-11.605333 2.730667-24.576 14.336-27.989333 11.605333-4.096 24.576 2.730667 27.989334 14.336l80.554666 245.76c1.365333 4.778667 1.365333 9.557333 0 14.336l-121.514666 349.525333c-3.413333 8.874667-12.288 14.336-21.162667 14.336z"></path><path d="M815.786667 496.298667H512c-12.288 0-22.528-10.24-22.528-22.528s10.24-22.528 22.528-22.528h303.786667c12.288 0 22.528 10.24 22.528 22.528s-10.24 22.528-22.528 22.528z"></path></svg>