<?xml version="1.0" encoding="utf-8"?>
<!-- Generator: Adobe Illustrator 22.0.0, SVG Export Plug-In . SVG Version: 6.00 Build 0)  -->
<svg version="1.1" id="图层_1" xmlns="http://www.w3.org/2000/svg" xmlns:xlink="http://www.w3.org/1999/xlink" x="0px" y="0px"
	 viewBox="0 0 53.9 40.3" style="enable-background:new 0 0 53.9 40.3;" xml:space="preserve">
<style type="text/css">
	.st0{fill:#B8BCCC;}
	.st1{fill:#2BA345;}
</style>
<title>1</title>
<g id="圖層_2">
	<g id="圖層_1-2">
		<path class="st0" d="M4.6,40.3c-2.5,0-4.6-2-4.6-4.6c0,0,0,0,0,0V4.6C0,2.1,2,0,4.6,0c0,0,0,0,0,0h44.7c2.5,0,4.6,2,4.6,4.6
			c0,0,0,0,0,0v31.1c0,2.5-2,4.6-4.6,4.6c0,0,0,0,0,0H4.6z M4.5,3.1c-0.9,0-1.6,0.7-1.6,1.6c0,0,0,0,0,0l0.3,31.1
			c0,0.9,0.7,1.6,1.6,1.6c0,0,0,0,0,0L49.4,37c0.9,0,1.6-0.7,1.6-1.6c0,0,0,0,0,0L50.8,4.3c0-0.9-0.7-1.6-1.6-1.6c0,0,0,0,0,0
			L4.5,3.1z M9.7,29.8c-0.8,0-1.5-0.7-1.5-1.5s0.7-1.5,1.5-1.5h10.9c0.8,0,1.5,0.7,1.5,1.5s-0.7,1.5-1.5,1.5H9.7z M9.7,21.3
			c-0.8,0-1.5-0.7-1.5-1.5s0.7-1.5,1.5-1.5h10.9c0.8,0,1.5,0.7,1.5,1.5s-0.7,1.5-1.5,1.5H9.7z M9.7,12.9c-0.8,0-1.5-0.7-1.5-1.5
			s0.7-1.5,1.5-1.5h10.9c0.8,0,1.5,0.7,1.5,1.5s-0.7,1.5-1.5,1.5H9.7z"/>
		<path class="st1" d="M46.5,29.3c0-3.6-1.9-6.8-5-8.6l-0.2-0.1l0.2-0.2c1.2-1.3,1.9-2.9,1.9-4.7c0-3.6-2.9-6.6-6.6-6.6
			c-3.6,0-6.6,2.9-6.6,6.6c0,1.7,0.6,3.3,1.8,4.6l0.2,0.2L32,20.5c-3.3,1.7-5.4,5.1-5.4,8.8c0,0.8,0.7,1.5,1.5,1.5s1.5-0.7,1.5-1.5
			c0-3.9,3.1-7,7-7c3.9,0,7,3.1,7,7c0,0.8,0.7,1.5,1.5,1.5c0.7,0,1.4-0.5,1.4-1.3C46.5,29.5,46.5,29.4,46.5,29.3z M36.9,19.3
			c-2,0-3.6-1.6-3.6-3.6s1.6-3.6,3.6-3.6c2,0,3.6,1.6,3.6,3.6v0C40.5,17.7,38.9,19.3,36.9,19.3C36.9,19.3,36.9,19.3,36.9,19.3z"/>
	</g>
</g>
</svg>
