<svg id="图层_1" data-name="图层 1" xmlns="http://www.w3.org/2000/svg" viewBox="0 0 60 60"><defs><style>.cls-1{opacity:0.8;}.cls-2{fill:#fff;}</style></defs><title>画板 1</title><g class="cls-1"><path class="cls-2" d="M54.68,7.75H5.32A5.33,5.33,0,0,0,0,13.07V47.43a5.33,5.33,0,0,0,5.32,5.32H54.68A5.32,5.32,0,0,0,60,47.43V13.07A5.33,5.33,0,0,0,54.68,7.75ZM22.94,41.2h-12a1.88,1.88,0,1,1,0-3.75h12a1.88,1.88,0,0,1,0,3.75Zm0-9.3h-12a1.88,1.88,0,1,1,0-3.75h12a1.88,1.88,0,0,1,0,3.75Zm0-9.31h-12a1.88,1.88,0,1,1,0-3.75h12a1.88,1.88,0,0,1,0,3.75ZM48.88,42.38A1.88,1.88,0,0,1,47,40.5a7.5,7.5,0,0,0-15,0,1.88,1.88,0,1,1-3.75,0,11.22,11.22,0,0,1,6.06-9.92,7.48,7.48,0,1,1,10.78.22,11.24,11.24,0,0,1,5.66,9.7A1.88,1.88,0,0,1,48.88,42.38Z"/>
<circle class="cls-2" cx="39.8" cy="25.5" r="3.75"/></g></svg>