<svg xmlns="http://www.w3.org/2000/svg" viewBox="0 0 80 77.62"><defs><style>.cls-1{fill:#2ba345;}</style></defs><title>witndraw</title><g id="圖層_2" data-name="圖層 2"><g id="圖層_1-2" data-name="圖層 1"><path class="cls-1" d="M56.54,46.29a3.59,3.59,0,1,0,7.18,0h0a3.59,3.59,0,1,0-7.18,0Z"/><path class="cls-1" d="M57.55,54.2A6.2,6.2,0,0,1,51.37,48v-4a6.2,6.2,0,0,1,6.18-6.18H80V25.11a6.2,6.2,0,0,0-6.18-6.18H6.18A6.2,6.2,0,0,0,0,25.11V71.44a6.2,6.2,0,0,0,6.18,6.18H73.82A6.2,6.2,0,0,0,80,71.44V54.2ZM68.61,15,62.09,3.19A6.19,6.19,0,0,0,53.69.77L27.92,15Z"/></g></g></svg>