<svg id="图层_1" data-name="图层 1" xmlns="http://www.w3.org/2000/svg" viewBox="0 0 53.5 35.9"><defs><style>.cls-1{fill:#b8bccc;}.cls-2{fill:#2ba345;}</style></defs><title>画板 1</title><g id="圖層_2" data-name="圖層 2"><g id="圖層_1-2" data-name="圖層 1-2"><path class="cls-1" d="M1.5,12.6A1.45,1.45,0,0,1,0,11.2H0a1.5,1.5,0,0,1,.4-1.1,1.61,1.61,0,0,1,1.1-.5H51.8A1.45,1.45,0,0,1,53.3,11h0a1.5,1.5,0,0,1-.4,1.1,1.61,1.61,0,0,1-1.1.5Z"/><path class="cls-1" d="M4.9,35.8a6.75,6.75,0,0,1-1.4-.2A4.83,4.83,0,0,1,.1,31V4.9A4.91,4.91,0,0,1,5,0H48.6a4.83,4.83,0,0,1,4.7,3.5,6.75,6.75,0,0,1,.2,1.4V31a6.75,6.75,0,0,1-.2,1.4,4.9,4.9,0,0,1-3.4,3.3,5,5,0,0,1-1.2.2H4.9Zm0-32.7A2,2,0,0,0,3,5H3V31.1A2,2,0,0,0,4.9,33H48.5a2,2,0,0,0,1.9-1.9h0V5a2,2,0,0,0-1.9-1.9H4.9Z"/><path class="cls-2" d="M25.8,27.2a1.45,1.45,0,0,1-1.5-1.4h0a1.5,1.5,0,0,1,.4-1.1,1.61,1.61,0,0,1,1.1-.5h2a1.45,1.45,0,0,1,1.5,1.4h0a1.5,1.5,0,0,1-.4,1.1,1.61,1.61,0,0,1-1.1.5Z"/><path class="cls-2" d="M9.2,27.2a1.45,1.45,0,0,1-1.5-1.4h0a1.5,1.5,0,0,1,.4-1.1,1.61,1.61,0,0,1,1.1-.5h11a1.45,1.45,0,0,1,1.5,1.4h0a1.5,1.5,0,0,1-.4,1.1,1.61,1.61,0,0,1-1.1.5Z"/></g></g></svg>