<?xml version="1.0" encoding="utf-8"?>
<!-- Generator: Adobe Illustrator 22.0.0, SVG Export Plug-In . SVG Version: 6.00 Build 0)  -->
<svg version="1.1" id="图层_1" xmlns="http://www.w3.org/2000/svg" xmlns:xlink="http://www.w3.org/1999/xlink" x="0px" y="0px"
	 viewBox="0 0 80 77.6" style="enable-background:new 0 0 80 77.6;" xml:space="preserve">
<title>witndraw</title>
<g>
	<g>
		<path d="M54.9,45.6c0,1.8,1.4,3.2,3.2,3.2c1.8,0,3.2-1.4,3.2-3.2l0,0c0-1.8-1.4-3.2-3.2-3.2C56.3,42.4,54.9,43.8,54.9,45.6z"/>
		<path d="M55.8,52.7c-3.1,0-5.6-2.5-5.6-5.6v-3.6c0-3.1,2.5-5.6,5.6-5.6h20.3V26.4c0-3.1-2.5-5.6-5.6-5.6h-61
			c-3.1,0-5.6,2.5-5.6,5.6v41.8c0,3.1,2.5,5.6,5.6,5.6h61c3.1,0,5.6-2.5,5.6-5.6V52.7H55.8z M65.8,17.3L59.9,6.6
			C58.4,3.9,55,3,52.4,4.5L29.1,17.3H65.8z"/>
	</g>
</g>
</svg>
