<svg id="图层_1" data-name="图层 1" xmlns="http://www.w3.org/2000/svg" viewBox="0 0 663.07 503.54"><title>画板 1</title><path d="M5.09,3.11l158.2,244.83A26.35,26.35,0,0,0,209,243l10.27-24Z"/><path d="M15.15,3.11,222.23,211.9l43.51-101.66c8.49-19.78,8-42.58-2.4-61.47a87.7,87.7,0,0,0-76-45.66Z"/><path d="M459.8,3.11c-3.4.12-53.88,2.9-85.63,53.3-29.72,44.27-127.7,191-158.88,237.67a26.28,26.28,0,0,0-.16,28.94L276,416.88,648.16,3.11Z"/><polygon points="280.12 423.23 330.36 502.33 658.97 3.16 280.12 423.23"/></svg>